<mxfile host="65bd71144e">
    <diagram id="zn_GUCorf3FzfIdO168l" name="Page-1">
        <mxGraphModel dx="1178" dy="892" grid="1" gridSize="10" guides="1" tooltips="1" connect="1" arrows="1" fold="1" page="1" pageScale="1" pageWidth="850" pageHeight="1100" math="0" shadow="0">
            <root>
                <mxCell id="0"/>
                <mxCell id="1" parent="0"/>
                <mxCell id="2" value="" style="rounded=0;whiteSpace=wrap;html=1;fillColor=#243E36;movable=0;resizable=0;rotatable=0;deletable=0;editable=0;connectable=0;" parent="1" vertex="1">
                    <mxGeometry x="40" y="40" width="760" height="1040" as="geometry"/>
                </mxCell>
                <mxCell id="3" value="" style="rounded=0;whiteSpace=wrap;html=1;fillColor=#212529;" vertex="1" parent="1">
                    <mxGeometry x="40" y="40" width="760" height="80" as="geometry"/>
                </mxCell>
                <mxCell id="4" value="&lt;font style=&quot;font-size: 28px;&quot;&gt;Page Title&lt;/font&gt;" style="text;html=1;strokeColor=none;fillColor=none;align=center;verticalAlign=middle;whiteSpace=wrap;rounded=0;" vertex="1" parent="1">
                    <mxGeometry x="60" y="65" width="140" height="30" as="geometry"/>
                </mxCell>
                <mxCell id="5" value="" style="rounded=0;whiteSpace=wrap;html=1;fontSize=28;fillColor=#FFFFFF;" vertex="1" parent="1">
                    <mxGeometry x="720" y="55" width="50" height="50" as="geometry"/>
                </mxCell>
                <mxCell id="6" value="&lt;font color=&quot;#000000&quot; style=&quot;font-size: 11px;&quot;&gt;DropDown&lt;/font&gt;" style="text;html=1;strokeColor=none;fillColor=none;align=center;verticalAlign=middle;whiteSpace=wrap;rounded=0;fontSize=28;" vertex="1" parent="1">
                    <mxGeometry x="715" y="65" width="60" height="15" as="geometry"/>
                </mxCell>
                <mxCell id="9" value="" style="rounded=0;whiteSpace=wrap;html=1;fontSize=11;fontColor=#000000;fillColor=#7BA982;" vertex="1" parent="1">
                    <mxGeometry x="70" y="150" width="700" height="400" as="geometry"/>
                </mxCell>
                <mxCell id="10" value="" style="rounded=0;whiteSpace=wrap;html=1;fontSize=11;fontColor=#000000;fillColor=#212529;" vertex="1" parent="1">
                    <mxGeometry x="510" y="240" width="230" height="220" as="geometry"/>
                </mxCell>
                <mxCell id="11" value="&lt;font style=&quot;font-size: 37px;&quot; color=&quot;#ffffff&quot;&gt;IMAGE&lt;/font&gt;" style="text;html=1;strokeColor=none;fillColor=none;align=center;verticalAlign=middle;whiteSpace=wrap;rounded=0;fontSize=11;fontColor=#000000;" vertex="1" parent="1">
                    <mxGeometry x="520" y="260" width="210" height="180" as="geometry"/>
                </mxCell>
                <mxCell id="13" value="&lt;font style=&quot;font-size: 32px;&quot;&gt;&lt;u&gt;Heading&lt;/u&gt;&lt;/font&gt;" style="text;html=1;strokeColor=none;fillColor=none;align=center;verticalAlign=middle;whiteSpace=wrap;rounded=0;fontSize=18;fontColor=#FFFFFF;" vertex="1" parent="1">
                    <mxGeometry x="320" y="170" width="210" height="30" as="geometry"/>
                </mxCell>
                <mxCell id="16" value="&lt;h1 style=&quot;line-height: 36%;&quot;&gt;&lt;span style=&quot;background-color: initial; font-weight: normal;&quot;&gt;&lt;font style=&quot;font-size: 17px;&quot;&gt;Lorem ipsum dolor sit amet, consectetur adipisicing elit, sed do eiusmod tempor incididunt ut labore et dolore magna aliqua.&lt;/font&gt;&lt;/span&gt;&lt;br&gt;&lt;/h1&gt;" style="text;html=1;strokeColor=none;fillColor=none;spacing=5;spacingTop=-20;whiteSpace=wrap;overflow=hidden;rounded=0;fontSize=32;fontColor=#FFFFFF;opacity=80;" vertex="1" parent="1">
                    <mxGeometry x="100" y="240" width="360" height="220" as="geometry"/>
                </mxCell>
            </root>
        </mxGraphModel>
    </diagram>
</mxfile>